Coordinates
version=1
nRows=28
nColumns=23
inDegrees=yes

Units are S.I. units (second, meters, Newtons, ...)
If the header above contains a line with 'inDegrees', this indicates whether rotational values are in degrees (yes) or radians (no).

endheader
time	pelvis_tilt	pelvis_list	pelvis_rotation	pelvis_tx	pelvis_ty	pelvis_tz	hip_flexion_r	hip_adduction_r	hip_rotation_r	knee_angle_r	knee_angle_r_beta	ankle_angle_r	subtalar_angle_r	mtp_angle_r	hip_flexion_l	hip_adduction_l	hip_rotation_l	knee_angle_l	knee_angle_l_beta	ankle_angle_l	subtalar_angle_l	mtp_angle_l
     15.00000000	     -2.06867969	     -9.42915255	    -11.30394495	      2.23578446	      0.98426980	      1.00688922	     13.51408505	     13.71182087	     -4.15631977	     46.61073302	      0.81351076	     28.37152465	      6.53666916	      0.00000000	     36.62269160	    -16.54167525	      0.44870354	    125.38242739	      2.18833618	     -7.85539301	     -8.00833247	      0.00000000
     15.00666667	     -1.29079419	     -8.81966592	    -10.31954660	      2.23628791	      0.98842683	      1.00690522	     10.00101950	     12.57045420	     -4.17985776	     44.84555307	      0.78270256	     28.48692454	      7.35555419	      0.00000000	     38.30359275	    -15.53101439	      1.09695112	    123.89309919	      2.16234250	     -7.21692262	     -8.57795620	      0.00000000
     15.01333333	     -1.21204500	     -8.07248580	     -9.24112044	      2.23702977	      0.99202680	      1.00693689	      7.22290810	     11.56564603	     -4.25794355	     42.90637297	      0.74885748	     28.32927256	      7.51062057	      0.00000000	     40.67130930	    -14.25616318	      1.75290192	    122.19893397	      2.13277374	     -6.48865596	     -9.32384774	      0.00000000
     15.02000000	     -0.55243840	     -7.18625245	     -8.05664277	      2.23849379	      0.99693468	      1.00697436	      3.65383725	     10.35226344	     -4.59187756	     40.59349344	      0.70849012	     27.80908809	      8.07078714	      0.00000000	     41.95411619	    -12.72026323	      1.96599406	    120.01421617	      2.09464322	     -6.19130382	    -10.77565671	      0.00000000
     15.02666667	     -0.51697005	     -6.23502386	     -6.82547991	      2.24021138	      1.00118415	      1.00700499	      0.78112595	      9.27381652	     -5.16911052	     38.22748211	      0.66719543	     26.66527214	      8.28085585	      0.00000000	     43.78049437	    -11.08321445	      2.15201275	    117.68614782	      2.05401076	     -5.62188925	    -12.01184386	      0.00000000
     15.03333333	     -0.09798668	     -5.14657048	     -5.62204131	      2.24250655	      1.00641010	      1.00716904	     -2.63165908	      8.13896980	     -5.77022316	     35.53709974	      0.62023940	     24.87280456	      8.46980052	      0.00000000	     44.76202114	     -9.35036107	      1.94791193	    114.95366082	      2.00631987	     -5.36529160	    -13.77487106	      0.00000000
     15.04000000	     -0.05027370	     -4.09930940	     -4.38099058	      2.24507385	      1.01129936	      1.00736390	     -5.63834237	      7.23760543	     -6.54262785	     32.76185750	      0.57180228	     22.22673300	      8.20709678	      0.00000000	     45.95838554	     -7.62452633	      1.78574845	    112.05387041	      1.95570898	     -5.07031708	    -15.35070010	      0.00000000
     15.04666667	     -0.13056574	     -3.05559657	     -3.17685435	      2.24793049	      1.01619704	      1.00760949	     -8.47982843	      6.46732971	     -7.42761686	     29.95567927	      0.52282523	     18.89214739	      7.72883984	      0.00000000	     47.03445977	     -5.93681584	      1.53240642	    108.93866118	      1.90133832	     -4.85233459	    -16.90502000	      0.00000000
     15.05333333	     -0.34088784	     -2.09911425	     -2.02983597	      2.25095443	      1.02107314	      1.00794237	    -11.12700924	      5.93738776	     -8.23030538	     27.13813932	      0.47364988	     14.84434850	      6.63346018	      0.00000000	     48.02721745	     -4.39075158	      1.25386372	    105.64386052	      1.84383320	     -4.62948564	    -18.19124114	      0.00000000
     15.06000000	     -0.63004541	     -1.10834629	     -0.95293212	      2.25410868	      1.02583740	      1.00822908	    -13.47821032	      5.30853314	     -9.57512592	     24.69880989	      0.43107555	     10.54830841	      6.15489111	      0.00000000	     48.87405639	     -2.85141461	      0.87427075	    102.15790480	      1.78299180	     -4.53189565	    -19.38118272	      0.00000000
     15.06666667	     -1.05587961	     -0.24495981	      0.03496078	      2.25729777	      1.03047110	      1.00852214	    -15.50046006	      4.89194571	    -10.80363892	     22.53101108	      0.39324033	      5.87858818	      5.20043716	      0.00000000	     49.67765897	     -1.48639507	      0.52315036	     98.52436188	      1.71957451	     -4.40033741	    -20.11189421	      0.00000000
     15.07333333	     -1.57999731	      0.46150008	      0.92096956	      2.26041018	      1.03497314	      1.00877626	    -17.16739139	      4.62871388	    -11.99586090	     20.78540388	      0.36277373	      1.06758233	      3.99177584	      0.00000000	     50.41394470	     -0.32117849	      0.22382698	     94.76092909	      1.65389021	     -4.25986030	    -20.41402373	      0.00000000
     15.08000000	     -2.10210258	      1.13073112	      1.69193851	      2.26335230	      1.03937409	      1.00891420	    -18.45265458	      4.23327240	    -13.61982522	     19.82774813	      0.34605949	     -3.38162433	      3.53860493	      0.00000000	     50.96460381	      0.76635050	     -0.10008905	     90.84075364	      1.58547025	     -4.13857252	    -20.37730078	      0.00000000
     15.08666667	     -2.68936309	      1.61467015	      2.34865417	      2.26611098	      1.04362469	      1.00895212	    -19.39406381	      4.00807832	    -14.82801342	     19.37309591	      0.33812431	     -7.61374919	      2.54215425	      0.00000000	     51.43044202	      1.62844785	     -0.35260642	     86.80288339	      1.51499612	     -3.93349608	    -19.82577433	      0.00000000
     15.09333333	     -3.26331321	      2.03207622	      2.90105124	      2.26856153	      1.04767038	      1.00878067	    -19.95627831	      3.64745192	    -16.21175848	     19.78024240	      0.34523036	    -11.11462634	      2.21571434	      0.00000000	     51.72812988	      2.40195307	     -0.59719019	     82.64057724	      1.44235017	     -3.66583480	    -18.87551484	      0.00000000
     15.10000000	     -3.88286003	      2.29154240	      3.35955277	      2.27066159	      1.05138922	      1.00839396	    -20.16764713	      3.35183926	    -17.18854394	     20.81469422	      0.36328495	    -14.00056809	      1.86683219	      0.00000000	     51.94584046	      3.01778220	     -0.77019356	     78.38270010	      1.36803619	     -3.34822605	    -17.57880730	      0.00000000
     15.10666667	     -4.36547605	      2.50409034	      3.72082966	      2.27241440	      1.05497387	      1.00783479	    -20.27724223	      3.03818322	    -17.72521638	     22.38187043	      0.39063733	    -16.17811796	      1.60281143	      0.00000000	     51.86289632	      3.53745112	     -0.97430584	     74.01589919	      1.29182114	     -2.94116723	    -15.93582193	      0.00000000
     15.11333333	     -4.78695871	      2.65066146	      3.99683405	      2.27382584	      1.05823441	      1.00713909	    -20.21829928	      2.75046192	    -17.75759760	     24.43931638	      0.42654654	    -17.59905031	      1.51936687	      0.00000000	     51.58342819	      3.93497561	     -1.22507578	     69.57405022	      1.21429625	     -2.45567603	    -13.93747575	      0.00000000
     15.12000000	     -5.12340209	      2.71243336	      4.19423052	      2.27489027	      1.06114305	      1.00639274	    -20.02890403	      2.52968648	    -17.35988433	     26.94077083	      0.47020515	    -18.21928431	      1.91313675	      0.00000000	     51.10305507	      4.16366678	     -1.56392424	     65.11122123	      1.13640519	     -1.79572286	    -11.40205600	      0.00000000
     15.12666667	     -5.50873578	      2.63917764	      4.37692924	      2.27554146	      1.06358370	      1.00555227	    -19.59045113	      2.56540352	    -16.25387382	     29.73544394	      0.51898140	    -18.43017634	      1.80878627	      0.00000000	     50.56537741	      4.34383210	     -1.77432771	     60.59634624	      1.05760576	     -1.45748031	     -9.14223831	      0.00000000
     15.13333333	     -5.74864357	      2.48463757	      4.46330197	      2.27607448	      1.06574713	      1.00493628	    -19.15384509	      2.75680912	    -14.78909089	     32.78098710	      0.57213616	    -18.15595041	      2.20727746	      0.00000000	     49.78708389	      4.25957979	     -2.22794826	     56.17565095	      0.98045007	     -0.81189125	     -6.00945458	      0.00000000
     15.14000000	     -6.01107084	      2.25081956	      4.53609452	      2.27626509	      1.06744933	      1.00439122	    -18.49981921	      3.18103034	    -12.89632534	     36.10077282	      0.63007735	    -17.67508643	      2.12073185	      0.00000000	     48.94250268	      4.20735365	     -2.51697471	     51.76090728	      0.90339826	     -0.62777264	     -3.45808281	      0.00000000
     15.14666667	     -6.17668436	      1.95201499	      4.57382601	      2.27623111	      1.06872182	      1.00409120	    -17.77459391	      3.76663684	    -10.92756262	     39.70480685	      0.69297961	    -17.02554308	      2.06848484	      0.00000000	     47.96643044	      4.02158081	     -2.91743779	     47.54347909	      0.82979025	     -0.49676128	     -0.57683173	      0.00000000
     15.15333333	     -6.25371213	      1.62028208	      4.68159319	      2.27606756	      1.06955140	      1.00391279	    -17.00907744	      4.51857794	     -9.04582872	     43.51798104	      0.75953205	    -16.31469812	      1.95263596	      0.00000000	     46.87001921	      3.91850749	     -3.13418312	     43.53153907	      0.75976869	     -0.56404931	      2.14245211	      0.00000000
     15.16000000	     -6.22219178	      1.31646951	      4.69364667	      2.27591844	      1.06988323	      1.00414107	    -16.24081648	      5.22359095	     -7.41711675	     47.54763524	      0.82986279	    -15.76795728	      2.10847128	      0.00000000	     45.71003937	      3.62098556	     -3.77991077	     39.95398738	      0.69732863	     -0.48701209	      5.51207161	      0.00000000
     15.16666667	     -6.10262374	      1.10297600	      4.82333340	      2.27555488	      1.06972093	      1.00435304	    -15.43706752	      5.90096529	     -6.12108341	     51.77672536	      0.90367433	    -15.25354829	      1.90369057	      0.00000000	     44.46279047	      3.60945493	     -4.09505459	     36.66203025	      0.63987314	     -0.80497026	      8.00791309	      0.00000000
     15.17333333	     -5.92563004	      0.89078162	      5.05216299	      2.27507827	      1.06913072	      1.00463214	    -14.60145692	      6.62821835	     -5.14092233	     56.06979193	      0.97860248	    -14.99011629	      1.35679497	      0.00000000	     43.17380941	      3.74950884	     -4.04240652	     33.71225541	      0.58838986	     -1.19518071	      9.80550213	      0.00000000
     15.18000000	     -5.53482358	      0.99725985	      5.23010196	      2.27463470	      1.06816059	      1.00507089	    -13.91856664	      6.86674200	     -4.67110886	     60.52796646	      1.05641230	    -14.82241702	      0.96204988	      0.00000000	     41.69357766	      3.97925104	     -4.55584828	     31.24643315	      0.54535314	     -1.66076294	     11.63695580	      0.00000000
